<svg xmlns="http://www.w3.org/2000/svg" width="900" height="50" viewBox="0 0 900 50">
  <g fill="#3D474D">
    <path d="M0,6 L0,6.00427567 L77,6.00427567 L38.9120972,43.9807595 L0,43.9807595 L0,6 Z M45.6960493,13.1429311 L38.1170626,13.1429311 L38.1170626,31.1118537 L31.4960626,13.1429311 L24.9333823,13.1429311 L19.2763725,28.1659184 C18.6785957,24.3793868 14.7445896,23.0684669 11.6519308,22.0910492 C9.61331462,21.436872 7.44347913,20.4757018 7.46320491,19.4110605 C7.48035776,18.5405345 8.62874105,17.7332883 10.8937749,17.8538622 C12.4203785,17.9308242 13.7668772,18.0539634 16.4401488,19.3426498 L19.0731112,14.7693952 C16.633976,13.5268861 13.254007,12.7470042 10.4889676,12.7410183 L10.4718147,12.7410183 C7.24622136,12.7410183 4.55836981,13.7894121 2.89111282,15.5056653 C1.73243782,16.7062729 1.10550116,18.2249902 1.07719896,19.9155893 C1.03431684,22.2312911 1.8893864,23.8748579 3.67928626,25.1891983 C5.19388289,26.2957412 7.12615141,27.0080675 8.83285996,27.5416709 C10.9383723,28.189007 12.6570878,28.7542504 12.637362,29.9591336 C12.6202092,30.3978172 12.4563995,30.8091364 12.1382141,31.1340872 C11.6141945,31.677097 10.8088682,31.8780534 9.69479066,31.9028523 C7.54725387,31.945609 5.95461178,31.6121069 3.41770531,30.1173333 L1.07719896,34.7547229 C3.60638665,36.1904923 6.60041657,37.0302335 9.65619675,37.0302335 L10.0515699,37.0302335 C12.7102616,36.9789255 14.8577984,36.2221322 16.573941,34.8470774 L16.8518172,34.6050745 L16.0936612,36.636872 L22.9762422,36.636872 L24.1323443,33.1316793 C25.3416202,33.5395781 26.718994,33.7687539 28.1769862,33.7687539 C29.5998151,33.7687539 30.9420256,33.5549705 32.1298604,33.1650295 L33.2413651,36.636872 L44.4713358,36.636872 L44.4713358,29.3767876 L46.9216204,29.3767876 C52.8393535,29.3767876 56.3436807,26.3735584 56.3436807,21.3334008 C56.3436807,15.7237243 52.9405554,13.1506273 45.6951916,13.1506273 L45.6960493,13.1429311 Z M46.1385928,24.1732996 L44.4696205,24.1732996 L44.4696205,18.0873136 L46.1385928,18.0873136 C48.366748,18.0873136 50.1403526,18.819308 50.1403526,21.091398 C50.1403526,23.4378847 48.366748,24.1732996 46.1385928,24.1732996 Z M28.1752709,28.5242194 C27.2918992,28.5242194 26.4634165,28.3634543 25.7472851,28.0949423 L28.1512569,20.5355612 L28.2027155,20.5355612 L30.5569441,28.1154655 C29.8476738,28.3685851 29.0406322,28.5242194 28.1778439,28.5242194 L28.1752709,28.5242194 Z M50.2525323,39.056216 C48.8923113,39.056216 47.7331217,40.1012748 47.7331217,41.5147252 C47.7331217,42.9385226 48.8922255,44 50.2525323,44 C51.5938851,44 52.7182544,42.9386937 52.7182544,41.5147252 C52.7182544,40.1012748 51.5938851,39.056216 50.2525323,39.056216 Z M50.2525323,39.4571027 C51.3622359,39.4571027 52.2357448,40.3509738 52.2357448,41.5147252 C52.2357448,42.6984011 51.3622359,43.5724332 50.2525323,43.5724332 C49.123789,43.5724332 48.2156314,42.6984011 48.2156314,41.5147252 C48.2156314,40.3509738 49.123789,39.4571027 50.2525323,39.4571027 Z M49.2876845,40.0984529 L49.2876845,42.931083 L49.7165057,42.931083 L49.7165057,41.7018284 L50.1988439,41.7018284 L50.9761252,42.931083 L51.4585491,42.931083 L50.6276651,41.7018284 C51.0428498,41.6505204 51.3781023,41.4098003 51.3781023,40.9001406 C51.3781023,40.3417384 51.0353883,40.0984529 50.3597376,40.0984529 L49.2876845,40.0984529 Z M49.7165057,40.4725738 L50.3060492,40.4725738 C50.5960181,40.4725738 50.9225226,40.5196062 50.9225226,40.873375 C50.9225226,41.3155646 50.5919014,41.3544731 50.2256881,41.3544731 L49.7165057,41.3544731 L49.7165057,40.4725738 Z"/>
    <path d="M9.45195507 27.3214286L24.5264644 27.3214286C24.6480335 27.3214286 24.6480335 27.4428576 24.5264644 27.4428576 22.7029373 28.1714295 20.2715647 30.4785719 20.2715647 30.4785719 18.5696009 31.9357157 17.2323478 32.9071433 14.4362704 32.9071433L.0911744047 32.9071433C-.0303923992 32.9071433-.0303923992 32.7857143.0911744047 32.7857143 1.67156559 31.9357156 3.98137146 29.6285709 3.98137146 29.6285709 4.95391962 28.6571433 6.89901584 27.3214286 9.45195507 27.3214286L9.45195507 27.3214286 9.45195507 27.3214286zM108.044118 27.3214286L123.11862 27.3214286C123.240187 27.3214286 123.240187 27.4428576 123.11862 27.4428576 121.416657 28.1714295 118.985285 30.4785719 118.985285 30.4785719 117.283322 31.9357157 115.946069 32.9071433 113.149996 32.9071433L98.6833277 32.9071433C98.5617609 32.9071433 98.5617609 32.7857143 98.6833277 32.7857143 100.263724 31.9357156 102.573529 29.6285709 102.573529 29.6285709 103.66764 28.6571433 105.612745 27.3214286 108.044118 27.3214286L108.044118 27.3214286 108.044118 27.3214286zM34.1303884 27.3214286L49.2048954 27.3214286C49.3264668 27.3214286 49.3264668 27.4428576 49.2048954 27.4428576 47.5029374 28.1714295 45.0715649 30.4785719 45.0715649 30.4785719 43.3696023 31.9357157 42.0323492 32.9071433 39.236267 32.9071433L24.8911723 32.9071433C24.7696032 32.9071433 24.7696032 32.7857143 24.8911723 32.7857143 26.4715635 31.9357156 28.7813694 29.6285709 28.7813694 29.6285709 29.6323506 28.6571433 31.5774468 27.3214286 34.1303884 27.3214286L34.1303884 27.3214286 34.1303884 27.3214286zM58.6872521 27.3214286L73.7617591 27.3214286C73.8833305 27.3214286 73.8833305 27.4428576 73.7617591 27.4428576 72.0598011 28.1714295 69.6284286 30.4785719 69.6284286 30.4785719 67.926466 31.9357157 66.5892129 32.9071433 63.7931307 32.9071433L49.4480336 32.9071433C49.3264668 32.9071433 49.3264668 32.7857143 49.4480336 32.7857143 51.0284295 31.9357156 53.3382307 29.6285709 53.3382307 29.6285709 54.3107787 28.6571433 56.2558796 27.3214286 58.6872521 27.3214286L58.6872521 27.3214286 58.6872521 27.3214286zM83.3656825 27.3214286L98.4401941 27.3214286C98.5617609 27.3214286 98.5617609 27.4428576 98.4401941 27.4428576 96.7382315 28.1714295 94.306859 30.4785719 94.306859 30.4785719 92.6048964 31.9357157 91.2676433 32.9071433 88.4715611 32.9071433L74.1264688 32.9071433C74.0048973 32.9071433 74.0048973 32.7857143 74.1264688 32.7857143 75.7068599 31.9357156 78.0166611 29.6285709 78.0166611 29.6285709 78.9892139 28.6571433 80.93431 27.3214286 83.3656825 27.3214286L83.3656825 27.3214286 83.3656825 27.3214286zM87.4990178.121429179C78.0166611.121429179 71.816663 4.61428608 71.816663 11.5357144 71.816663 17.8499999 77.5303895 22.1000011 86.1617648 22.1000011 88.9578377 22.1000011 91.3892102 21.735714 94.3068591 21.0071421L94.3068591 15.6642855C92.2401962 17.85 89.8088237 18.6999998 87.1343083 18.6999998 82.0284297 18.6999998 78.6245043 15.5428576 78.6245043 10.9285717 78.6245043 6.43571356 82.2715632 3.15714237 87.2558843 3.15714237 90.0519571 3.15714237 92.2401962 4.12857119 93.9421588 5.8285707L93.9421588.728571914C92.11862.242858236 89.8088235.121429179 87.4990178.121429179L87.4990178.121429179 87.4990178.121429179zM16.3813672 3.7642862C19.9068604 3.7642862 24.040191 4.37142906 25.8637204 5.82857167L25.8637204.728571914.820584224.728571914.820584224 5.82857167C2.64411351 4.4928569 6.29117246 3.88571404 10.3029357 3.88571404L10.3029357 17.7285719C10.3029357 19.7928586 10.1813689 20.2785724 9.20881684 21.3714291L17.2323438 21.3714291C16.3813625 20.2785724 16.1382244 19.6714295 16.1382244 17.7285719L16.1382244 3.7642862 16.3813672 3.7642862 16.3813672 3.7642862zM42.2754874 8.86428596C40.8166629 9.35000036 38.2637237 9.47142881 36.9264683 9.47142881L34.8598006 9.47142881 34.8598006 4.0071431 37.6558781 4.0071431C40.2088198 4.0071431 44.5852885 4.4928569 46.1656797 5.95000073L46.1656797.728571914 28.051957.728571914C28.9029384 1.82142869 29.0245051 2.42857143 29.0245051 4.37142906L29.0245051 17.7285719C29.0245051 19.7928586 28.9029359 20.4000015 28.051957 21.3714291L47.381366 21.3714291 47.381366 16.3928584C44.7068599 18.3357148 39.7225434 18.3357148 37.6558781 18.2142869L34.8598006 18.2142869 34.8598006 12.5071443 36.9264683 12.5071443C38.3852928 12.5071443 40.816663 12.6285722 42.2754874 13.1142872L42.2754874 8.86428596 42.2754874 8.86428596 42.2754874 8.86428596zM69.1421522 1.45714395C66.3460748.607144071 62.4558777.00000133571429 59.6598003.00000133571429 54.4323503.00000133571429 49.3264669 1.57857301 49.3264669 6.80000121 49.3264669 15.7857156 65.1303885 11.0500018 65.1303885 16.5142869 65.1303885 18.3357155 62.3343111 19.0642862 60.146072 19.0642862 56.1343083 19.0642862 53.216664 18.4571433 49.6911719 16.3928579L49.6911719 20.8857148C52.3656826 21.7357157 55.89117 22.2214295 59.9029338 22.2214295 65.373522 22.2214295 70.4794053 20.7642857 70.4794053 15.5428581 70.4794053 6.07142821 54.6754838 10.3214293 54.6754838 5.70714334 54.6754838 3.88571477 57.2284231 3.15714286 59.416662 3.15714286 63.1852877 3.15714286 67.1970514 4.24999951 69.3852857 6.3142862L69.3852857 1.45714334 69.1421522 1.45714334 69.1421522 1.45714395zM101.84411 11.1714295C101.84411 6.80000049 104.640192 3.2785724 108.895094 3.2785724 113.149996 3.2785724 115.946069 6.80000109 115.946069 11.1714295 116.067645 15.4214295 113.271563 18.9428576 109.016661 18.9428576 104.640192 18.9428576 101.84411 15.4214295 101.84411 11.1714295L101.84411 11.1714295 101.84411 11.1714295zM122.38921 10.9285726C122.38921 4.37142906 117.283332 0 109.624504 0 101.357843.121429057 95.6441121 4.73571501 95.6441121 11.4142864 95.6441121 17.850001 100.871567 22.22143 108.530385 22.22143 116.675488 22.2214299 122.38921 17.6071429 122.38921 10.9285726L122.38921 10.9285726 122.38921 10.9285726z" transform="translate(166.75 8)"/>
    <path d="M519.591695 13.2879863L515.639891 13.2879863 515.639891 36.9997547 534.201934 36.9997547 536.716764 33.1259224 519.591695 33.1259224 519.591695 13.2879863zM465.408358 14.4617633L450.917742 37 455.708157 37 460.079141 30.1916024 469.420224 30.1916024 471.875242 26.3177702 462.534159 26.3177702 467.623881 18.5114782 479.539605 37 484.32977 37 469.719531 14.4031358C468.821359 12.9357305 466.426152 12.9357305 465.408358 14.4617633zM493.490668 17.1547047L510.106965 17.1547047 512.55848 13.2843067 493.370795 13.2948548C486.694946 13.2948548 482.300688 18.6000327 482.300688 25.1437478 482.300688 31.6877083 486.694946 36.9926409 493.370795 36.9926409L509.601446 36.9739978 512.142803 33.1330362 493.490668 33.1330362C488.9893 33.1330362 486.358101 29.5560212 486.358101 25.1437478 486.358101 20.7314745 488.9893 17.1547047 493.490668 17.1547047zM380.5 25.1437478C380.5 31.6877083 384.894008 36.9926409 391.570107 36.9926409L408.695176 36.9926409C415.371275 36.9926409 419.765533 31.6877083 419.765533 25.1437478 419.765533 18.6000327 415.371275 13.2948548 408.695176 13.2948548L391.570107 13.2948548C384.894008 13.2948548 380.5 18.6000327 380.5 25.1437478zM408.695176 33.1330362L391.570107 33.1330362C387.068739 33.1330362 384.43754 29.5560212 384.43754 25.1437478 384.43754 20.7317198 387.068739 17.1547047 391.570107 17.1547047L408.695176 17.1547047C413.196544 17.1547047 415.827743 20.7317198 415.827743 25.1437478 415.827743 29.5560212 413.196544 33.1330362 408.695176 33.1330362zM548.013103 17.1547047L564.6294 17.1547047 567.080664 13.2843067 547.89348 13.2948548C541.217381 13.2948548 536.823123 18.6000327 536.823123 25.1437478 536.823123 31.6877083 541.217381 36.9926409 547.89348 36.9926409L564.123881 36.9739978 566.665238 33.1330362 548.013103 33.1330362C544.171161 33.1330362 541.711138 30.5288947 541.067227 27.0220364L561.994697 27.0220364 564.509527 23.1482042 541.067227 23.1482042C541.75293 19.7156728 544.224967 17.1547047 548.013103 17.1547047zM442.286137 27.3657066C446.249703 27.3657066 449.462749 24.2160101 449.462749 20.3311392 449.462749 16.446023 446.249703 13.2963266 442.286137 13.2963266L422.137216 13.2879863 422.137216 36.9997547 426.568262 36.9997547 426.568262 17.1561765 442.286137 17.1561765C444.074972 17.1561765 445.52521 18.5774648 445.52521 20.3311392 445.52521 22.0845684 444.074972 23.5058566 442.286137 23.5058566L429.681706 23.5058566 443.900043 36.9732619 449.621162 36.9732619 439.441969 27.3742922 442.286137 27.3657066zM571.318512 13C570.130543 13 569.125512 13.8953576 569.125512 15.1103457 569.125512 16.3361271 570.130543 17.23173 571.318512 17.23173 572.494969 17.23173 573.5 16.3361271 573.5 15.1103457 573.5 13.8953576 572.494969 13 571.318512 13zM571.318512 16.8792289C570.330498 16.8792289 569.559457 16.1290909 569.559457 15.1103457 569.559457 14.108281 570.330498 13.3525011 571.318512 13.3525011 572.295014 13.3525011 573.066055 14.108281 573.066055 15.1103457 573.066055 16.1290909 572.295014 16.8792289 571.318512 16.8792289zM570.862044 14.9646354L570.862044 14.2088555 571.376321 14.2088555C571.638841 14.2088555 571.918628 14.2647846 571.918628 14.5672438 571.918628 14.9423128 571.633335 14.9646354 571.313257 14.9646354L570.862044 14.9646354 570.862044 14.9646354zM686.685615 8.01717341C686.685615 8.00187526 680.317592 8.01717341 680.317592 8.01717341 670.891628 8.01717341 663.25 15.6207509 663.25 25 663.25 34.3792491 670.891628 41.9829253 680.317592 41.9829253L692.290963 41.9729568C695.299011 41.9729568 697.737507 39.5654221 697.737507 36.5724122L697.743856 26.21418 706.019608 39.2024117C707.138773 40.8879722 709.060091 42 711.242378 42 714.697081 42 717.49782 39.2131698 717.49782 35.7756251L717.495936 26.21418 725.771688 39.2024117C726.891051 40.8879722 728.81227 42 730.994558 42 734.44926 42 737.25 39.2131698 737.25 35.7756251L737.248115 8.00187526 732.989773 8.00187526 732.989773 35.7756251C732.989773 36.8720587 732.096563 37.7609308 730.994558 37.7609308 730.30578 37.7609308 729.698635 37.413712 729.340062 36.885679L714.609991 13.7986914C714.473803 13.6020854 714.245963 13.4731861 713.987869 13.4731861 713.570873 13.4731861 713.232832 13.8095481 713.232832 14.2243749L713.237692 35.7756251C713.237692 36.8720587 712.344284 37.7609308 711.242378 37.7609308 710.5537 37.7609308 709.946456 37.413712 709.587883 36.885679L694.857812 13.7986914C694.721624 13.6020854 694.493783 13.4731861 694.23569 13.4731861 693.818793 13.4731861 693.480752 13.8095481 693.480752 14.2243749L693.477379 36.5724122C693.477379 37.224311 692.946215 37.7528376 692.290963 37.7528376L680.317592 37.7439548C673.244424 37.7439548 667.510227 32.038138 667.510227 25 667.510227 17.961862 673.244424 12.2560452 680.317592 12.2560452L686.685615 12.2514064 686.685615 8.01717341zM687.372012 32.3004767C687.706978 32.3004767 687.978661 32.0301435 687.978661 31.6967424L687.980248 14.2243749C687.980248 10.7868302 690.780988 8 694.23569 8 696.425814 8 698.353083 9.1199236 699.470562 10.8157487L707.717549 23.6887014 707.732427 14.2243749C707.732427 10.7868302 710.533167 8 713.987869 8 716.177993 8 718.105163 9.1199236 719.222741 10.8157487L727.469728 23.6887014 727.469728 8.00187526 731.757233 8.00187526 731.749595 35.7756251C731.749595 36.1904519 731.411554 36.5268139 730.994558 36.5268139 730.747574 36.5268139 730.528264 36.4087713 730.390488 36.2262792L715.642365 13.1144197C715.283792 12.586288 714.676548 12.2390692 713.987869 12.2390692 712.885963 12.2390692 711.992655 13.1279413 711.992655 14.2243749L711.997416 35.7756251C711.997416 36.1904519 711.659375 36.5268139 711.242378 36.5268139 710.995394 36.5268139 710.776084 36.4087713 710.638408 36.2262792L695.890186 13.1144197C695.531612 12.586288 694.924468 12.2390692 694.23569 12.2390692 693.133784 12.2390692 692.240475 13.1279413 692.240475 14.2243749L692.249402 35.9463723C692.249402 36.2796746 691.977819 36.5499091 691.642754 36.5499091L680.317592 36.5476391C673.929334 36.5476391 668.750504 31.3565312 668.750504 25 668.750504 18.6434688 673.929334 13.4523609 680.317592 13.4523609 680.317592 13.4523609 686.685615 13.4275878 686.685615 13.4523609L686.685615 17.7340676 680.317592 17.7292314C676.28213 17.7292314 673.010632 20.9845799 673.010632 25 673.010632 29.0154201 676.28213 32.3086686 680.317592 32.3086686L687.372012 32.3004767zM863.751657 0C854.390801 0 846.798622 7.62975501 846.798622 17.0427194 846.798622 26.4556838 854.390801 34.0854388 863.751657 34.0854388 873.115087 34.0854388 880.704692 26.4556838 880.704692 17.0427194 880.704692 7.62975501 873.115087 0 863.751657 0L863.751657 0zM872.221738 21.7634362C871.80467 22.589044 871.256303 23.3525371 870.586935 24.0202701 870.342358 24.2661408 870.082334 24.4964828 869.812013 24.708708 868.85945 25.4618486 867.765291 26.0131166 866.60162 26.3366306 865.782931 26.5617964 864.9282 26.6756733 864.070894 26.6627327 863.749082 26.6575565 863.429845 26.6368516 863.115757 26.5980299 862.626603 26.5385033 862.142599 26.437567 861.671467 26.300397 860.121622 25.8500655 858.685055 24.9908122 857.521384 23.8002806 857.052826 23.3240679 856.643482 22.8038573 856.290777 22.2525894 855.750133 21.4062767 855.343363 20.4849087 855.067893 19.5221309 855.047297 19.4496638 855.024126 19.3746085 855.006105 19.2995533 854.861933 18.7534616 854.758953 18.1918412 854.697166 17.6250446 854.635378 17.0478956 854.617356 16.4603941 854.640527 15.8754807 854.643101 15.8159542 854.645676 15.7590157 854.64825 15.6994891 854.697166 14.8609407 854.820741 14.0456854 855.013828 13.2614873 855.778453 10.1324596 857.611491 7.48740883 859.758618 5.66278967 861.190036 4.42826012 862.809392 3.54830194 864.377258 2.94009555 864.845816 2.75892769 865.309225 2.60364096 865.759761 2.46905912 866.053253 2.3810633 866.341596 2.30341993 866.622216 2.23612901 867.391989 2.04719682 868.115422 1.92296743 868.756471 1.85050028 869.309987 1.78838559 869.801715 1.76768069 870.208485 1.77544503 870.473657 1.78320936 870.710511 1.82720727 870.736256 1.91002686 870.73883 1.91520309 870.741405 1.93331988 870.73883 1.93590799 870.728532 1.99284646 870.620403 2.06790171 870.368103 2.15848564 867.670035 3.12126341 865.746889 5.69125891 865.746889 8.70899783 865.746889 8.78146498 865.754612 8.85134401 865.757187 8.91863493 867.137115 9.21109161 868.316232 9.70024484 869.312561 10.3188037 870.267698 10.9114814 871.047769 11.641329 871.6502 12.4876418 871.696541 12.5523446 871.742882 12.6196355 871.786649 12.6843383 872.229461 13.346895 872.569294 14.0741546 872.806148 14.8583526 873.035278 15.6244339 873.166577 16.4474536 873.197471 17.3118831 873.200045 17.4231719 873.20262 17.5344607 873.20262 17.6431614 873.20262 19.0873281 872.865361 20.5004374 872.221738 21.7634362zM829.816753 41.0288264L831.970573 46.7400138 834.053853 41.0288264 836.752179 41.0288264 833.225124 49.7859631 830.66891 49.7859631 827 41.0288264 829.816753 41.0288264zM841.344301 50C838.551234 50 836.799549 48.0250115 836.799549 45.4076536 836.799549 42.7900368 838.551234 40.8147895 841.344301 40.8147895 844.161054 40.8147895 845.912739 42.7900368 845.912739 45.4076536 845.912739 48.0250115 844.161054 50 841.344301 50zM841.344301 42.8135886C839.99501 42.8135886 839.332335 44.0038615 839.332335 45.4314642 839.332335 46.8349975 839.99501 48.0012009 841.344301 48.0012009 842.693593 48.0012009 843.356267 46.8349975 843.356267 45.4314642 843.356267 44.0038615 842.693593 42.8135886 841.344301 42.8135886zM855.617547 37.4595607L855.617547 49.6192887C854.576164 49.8335844 853.368985 50 851.901266 50 848.895289 50 846.954379 48.4057228 846.954379 45.3597735 846.954379 42.7900368 848.705806 40.8147895 851.333076 40.8147895 852.090749 40.8147895 852.82448 40.9814639 853.226873 41.1478796L853.226873 37.4595607 855.617547 37.4595607zM853.226873 43.2183694C852.848165 43.0040737 852.256289 42.8135886 851.522559 42.8135886 850.220638 42.8135886 849.487165 43.9321708 849.487165 45.3597735 849.487165 47.0969145 850.599603 47.9773903 851.948895 47.9773903 852.422086 47.9773903 852.895536 47.9538384 853.226873 47.8824065L853.226873 43.2183694zM856.730243 45.5978798C856.730243 42.8373993 858.766151 40.8147895 861.67713 40.8147895 863.121421 40.8147895 864.588624 41.171949 865.417096 41.5052979L865.417096 49.7859631 863.286961 49.7859631 863.121421 49.0242817C862.624029 49.5954781 861.913726 50 860.77786 50 858.481413 50 856.730243 48.3107391 856.730243 45.5978798zM863.002994 43.051695C862.742456 42.9802631 862.221636 42.8850205 861.630017 42.8850205 860.470208 42.8850205 859.263029 43.7895658 859.263029 45.5026373 859.263029 47.1918982 860.20967 48.0012009 861.274995 48.0012009 862.079524 48.0012009 862.71877 47.5728683 863.002994 47.0969145L863.002994 43.051695zM870.033162 37.2455239C870.672408 37.2455239 871.453252 37.364577 871.87933 37.4595607L871.87933 39.5536024C871.500365 39.5059811 870.861376 39.4583599 870.530039 39.4583599 869.962106 39.4583599 869.749195 39.5536024 869.559455 39.7202768 869.393915 39.8866924 869.346802 40.1247988 869.346802 40.5055101L869.346802 41.0288264 871.547736 41.0288264 871.547736 43.1469375 869.346802 43.1469375 869.346802 49.7859631 866.955613 49.7859631 866.955613 40.3152838C866.955613 39.2919442 867.287208 38.5305216 867.831713 38.0069465 868.352275 37.507182 869.157319 37.2455239 870.033162 37.2455239zM876.329084 50C873.512331 50 871.760904 48.0250115 871.760904 45.4076536 871.760904 42.7900368 873.512331 40.8147895 876.329084 40.8147895 879.146351 40.8147895 880.874351 42.7900368 880.874351 45.4076536 880.874351 48.0250115 879.146351 50 876.329084 50zM876.329084 42.8135886C874.980307 42.8135886 874.317375 44.0038615 874.317375 45.4314642 874.317375 46.8349975 874.980307 48.0012009 876.329084 48.0012009 877.678633 48.0012009 878.341565 46.8349975 878.341565 45.4314642 878.341565 44.0038615 877.678633 42.8135886 876.329084 42.8135886zM888.141114 44.9790622C888.141114 43.6707714 887.47844 43.0040737 886.152576 43.0040737 885.489644 43.0040737 884.756171 43.1231269 884.377463 43.2183694L884.377463 49.7859631 881.986789 49.7859631 881.986789 41.5052979C883.075027 41.1240689 884.638002 40.8147895 886.176261 40.8147895 888.9459 40.8147895 890.555216 42.1952886 890.555216 44.5033671L890.555216 49.7859631 888.141114 49.7859631 888.141114 44.9790622zM891.667912 45.3597735C891.667912 42.5757411 893.419339 40.7909789 895.952125 40.7909789 898.508854 40.7909789 900 42.7900368 900 45.2407203 900 45.5738104 899.976315 46.0259536 899.952114 46.2164387L894.105956 46.2164387C894.224383 47.4538151 895.029427 48.120254 896.615057 48.120254 897.964349 48.120254 899.053102 47.8345265 899.668663 47.6443002L899.668663 49.2385774C898.887304 49.6192887 897.86935 49.9761894 896.520316 49.9761894 893.443024 49.9761894 891.667912 48.3342909 891.667912 45.3597735zM897.798809 44.4557459C897.727495 43.5514594 897.088506 42.8135886 895.952125 42.8135886 894.815744 42.8135886 894.248068 43.4326651 894.153327 44.4557459L897.798809 44.4557459 897.798809 44.4557459z"/>
  </g>
</svg>
